<svg width="359" height="303" viewBox="0 0 359 303" fill="none" xmlns="http://www.w3.org/2000/svg">
<path d="M299.778 188.235L244.074 243.939C239.379 248.634 231.769 248.634 227.074 243.939L179.394 196.259L233.765 141.887H252.078C263.829 141.887 275.098 146.555 283.407 154.863L299.778 171.235C304.473 175.929 304.473 183.54 299.778 188.235Z" fill="url(#paint0_linear_596_817)"/>
<path d="M186.478 57.9339L234.99 106.446C241.3 112.756 236.831 123.546 227.907 123.546H130.883C121.959 123.546 117.489 112.756 123.8 106.446L172.312 57.9339C176.223 54.022 182.566 54.022 186.478 57.9339Z" fill="#FFCA40"/>
<path d="M114.714 243.938L59.009 188.233C54.3147 183.539 54.3147 175.928 59.009 171.233L75.3806 154.862C83.6895 146.553 94.959 141.885 106.71 141.885L253.002 141.887L252.154 141.887C240.492 141.887 229.298 146.475 220.99 154.661L131.713 243.938C127.019 248.632 119.408 248.632 114.714 243.938Z" fill="url(#paint1_linear_596_817)"/>
<defs>
<linearGradient id="paint0_linear_596_817" x1="276.708" y1="223.377" x2="212.151" y2="161.098" gradientUnits="userSpaceOnUse">
<stop stop-color="#408CFF"/>
<stop offset="1" stop-color="#013A6F"/>
</linearGradient>
<linearGradient id="paint1_linear_596_817" x1="151.756" y1="147.84" x2="85.1825" y2="217.789" gradientUnits="userSpaceOnUse">
<stop stop-color="#408CFF"/>
<stop offset="1" stop-color="#025AAC"/>
</linearGradient>
</defs>
</svg>
